<?xml version="1.0" encoding="utf-8"?>
<!-- Generator: Adobe Illustrator 28.1.0, SVG Export Plug-In . SVG Version: 6.00 Build 0)  -->
<svg version="1.1" id="レイヤー_1" xmlns="http://www.w3.org/2000/svg" xmlns:xlink="http://www.w3.org/1999/xlink" x="0px"
	 y="0px" width="16px" height="16px" viewBox="0 0 16 16" style="enable-background:new 0 0 16 16;" xml:space="preserve">
<style type="text/css">
	.st0{fill:#FFA300;}
</style>
<path class="st0" d="M14.5,8c0-3.6-2.9-6.5-6.5-6.5S1.5,4.4,1.5,8s2.9,6.5,6.5,6.5S14.5,11.6,14.5,8z M0,8c0-4.4,3.6-8,8-8
	s8,3.6,8,8s-3.6,8-8,8S0,12.4,0,8z M5.6,9.9C6,10.5,6.8,11,8,11s2-0.5,2.4-1.1c0.3-0.3,0.8-0.3,1.1,0s0.3,0.8,0,1.1
	c-0.7,0.7-1.9,1.5-3.6,1.5S5.1,11.7,4.5,11c-0.3-0.3-0.3-0.8,0-1.1S5.3,9.6,5.6,9.9L5.6,9.9z M4.5,6.5c0-0.6,0.4-1,1-1s1,0.4,1,1
	s-0.4,1-1,1S4.5,7.1,4.5,6.5z M10.5,5.5c0.6,0,1,0.4,1,1s-0.4,1-1,1s-1-0.4-1-1S10,5.5,10.5,5.5z"/>
</svg>
